<svg xmlns="http://www.w3.org/2000/svg" fill="none" viewBox="-0.5 -0.5 14 14"><g id="arrow-down-dashed-square--arrow-keyboard-button-down-square-dashes"><path id="Vector" stroke="#4147d5" stroke-linecap="round" stroke-linejoin="round" d="M2.5117857142857143 12.437285714285714a2.7912857142857144 2.7912857142857144 0 0 1 -1.9221428571428572 -1.8571428571428572" stroke-width="1"></path><path id="Vector_2" stroke="#4147d5" stroke-linecap="round" stroke-linejoin="round" d="M10.488214285714285 12.437285714285714a2.792214285714286 2.792214285714286 0 0 0 1.9221428571428572 -1.8571428571428572" stroke-width="1"></path><path id="Vector_3" stroke="#4147d5" stroke-linecap="round" stroke-linejoin="round" d="m5.571428571428571 12.535714285714286 1.8571428571428572 0m0 -12.071428571428571 -1.8571428571428572 0" stroke-width="1"></path><path id="Vector_4" stroke="#4147d5" stroke-linecap="round" stroke-linejoin="round" d="m0.4642857142857143 5.571428571428571 0 1.8571428571428572" stroke-width="1"></path><path id="Vector_5" stroke="#4147d5" stroke-linecap="round" stroke-linejoin="round" d="m12.535714285714286 5.571428571428571 0 1.8571428571428572" stroke-width="1"></path><path id="Vector_6" stroke="#4147d5" stroke-linecap="round" stroke-linejoin="round" d="M2.5117857142857143 0.5627142857142857a2.7912857142857144 2.7912857142857144 0 0 0 -1.9221428571428572 1.8571428571428572" stroke-width="1"></path><path id="Vector_7" stroke="#4147d5" stroke-linecap="round" stroke-linejoin="round" d="M10.488214285714285 0.5627142857142857a2.7912857142857144 2.7912857142857144 0 0 1 1.9221428571428572 1.8571428571428572" stroke-width="1"></path><path id="Vector_8" stroke="#4147d5" stroke-linecap="round" stroke-linejoin="round" d="m6.5 3.7142857142857144 0 5.571428571428571" stroke-width="1"></path><path id="Vector_9" stroke="#4147d5" stroke-linecap="round" stroke-linejoin="round" d="m4.642857142857143 7.428571428571429 1.8571428571428572 1.8571428571428572 1.8571428571428572 -1.8571428571428572" stroke-width="1"></path></g></svg>