<svg xmlns="http://www.w3.org/2000/svg" fill="none" viewBox="-0.5 -0.5 14 14"><g id="move-right--move-right-arrows"><path id="Vector" stroke="#4147d5" stroke-linecap="round" stroke-linejoin="round" d="M6.964285714285714 6.5h5.571428571428571" stroke-width="1"></path><path id="Vector_2" stroke="#4147d5" stroke-linecap="round" stroke-linejoin="round" d="M10.214285714285715 4.178571428571429 12.535714285714286 6.5 10.214285714285715 8.821428571428571" stroke-width="1"></path><path id="Vector_3" fill="#d7e0ff" d="M1.3928571428571428 12.535714285714286H3.7142857142857144a0.9285714285714286 0.9285714285714286 0 0 0 0.9285714285714286 -0.9285714285714286l0 -10.214285714285715a0.9285714285714286 0.9285714285714286 0 0 0 -0.9285714285714286 -0.9285714285714286H1.3928571428571428a0.9285714285714286 0.9285714285714286 0 0 0 -0.9285714285714286 0.9285714285714286l0 10.214285714285715a0.9285714285714286 0.9285714285714286 0 0 0 0.9285714285714286 0.9285714285714286Z" stroke-width="1"></path><path id="Vector_4" stroke="#4147d5" stroke-linecap="round" stroke-linejoin="round" d="M1.3928571428571428 12.535714285714286H3.7142857142857144a0.9285714285714286 0.9285714285714286 0 0 0 0.9285714285714286 -0.9285714285714286l0 -10.214285714285715a0.9285714285714286 0.9285714285714286 0 0 0 -0.9285714285714286 -0.9285714285714286H1.3928571428571428a0.9285714285714286 0.9285714285714286 0 0 0 -0.9285714285714286 0.9285714285714286l0 10.214285714285715a0.9285714285714286 0.9285714285714286 0 0 0 0.9285714285714286 0.9285714285714286Z" stroke-width="1"></path></g></svg>