<svg xmlns="http://www.w3.org/2000/svg" fill="none" viewBox="-0.5 -0.5 14 14"><g id="move-left--move-left-arrows"><path id="Vector" stroke="#4147d5" stroke-linecap="round" stroke-linejoin="round" d="M6.035714285714286 6.5h-5.571428571428571" stroke-width="1"></path><path id="Vector_2" stroke="#4147d5" stroke-linecap="round" stroke-linejoin="round" d="M2.7857142857142856 4.178571428571429 0.4642857142857143 6.5 2.7857142857142856 8.821428571428571" stroke-width="1"></path><path id="Vector_3" fill="#d7e0ff" d="M11.607142857142858 0.4642857142857143H9.285714285714286a0.9285714285714286 0.9285714285714286 0 0 0 -0.9285714285714286 0.9285714285714286v10.214285714285715a0.9285714285714286 0.9285714285714286 0 0 0 0.9285714285714286 0.9285714285714286h2.3214285714285716a0.9285714285714286 0.9285714285714286 0 0 0 0.9285714285714286 -0.9285714285714286v-10.214285714285715a0.9285714285714286 0.9285714285714286 0 0 0 -0.9285714285714286 -0.9285714285714286Z" stroke-width="1"></path><path id="Vector_4" stroke="#4147d5" stroke-linecap="round" stroke-linejoin="round" d="M11.607142857142858 0.4642857142857143H9.285714285714286a0.9285714285714286 0.9285714285714286 0 0 0 -0.9285714285714286 0.9285714285714286v10.214285714285715a0.9285714285714286 0.9285714285714286 0 0 0 0.9285714285714286 0.9285714285714286h2.3214285714285716a0.9285714285714286 0.9285714285714286 0 0 0 0.9285714285714286 -0.9285714285714286v-10.214285714285715a0.9285714285714286 0.9285714285714286 0 0 0 -0.9285714285714286 -0.9285714285714286Z" stroke-width="1"></path></g></svg>